<svg id="Layer_1" data-name="Layer 1"
    xmlns="http://www.w3.org/2000/svg" viewBox="0 0 1076.21 328.55">
    <defs>
        <style>.cls-1{fill:#000;}</style>
    </defs>
    <path class="cls-1" d="M912.69,1.72c90.69-.33,164.16,71.67,165,161.74.88,88.91-73.51,163.86-163.1,164.31S750.1,254.6,749.4,165.4,822.61,2,912.69,1.72Zm.65,245.7c47.12.13,84.46-36.32,84.66-82.65.21-46.14-37.3-83.65-83.89-83.9s-84,36.58-84.2,83.13C829.75,211,866,247.29,913.34,247.42Z" transform="translate(-1.54)"/>
    <path class="cls-1" d="M422.26,214.71c0,23.28.54,46.57-.15,69.83-.78,26.3-18,43.72-41.41,43.26s-40.54-18.3-40.94-44.37c-.6-39.07.18-78.15-.42-117.22-.18-11.45-1.51-23.34-4.93-34.21-10.21-32.5-36.25-51.56-66.18-50.12-29.37,1.42-55.76,23.34-61.59,56-4.2,23.47-3.71,47.87-4.34,71.88-.7,26.58.46,53.23-.6,79.79-.86,21.33-18,37.17-38.66,38.22-20.32,1-42.08-14-42.19-34.36-.3-56.37-3.68-113.66,4.88-168.92C138.11,44.49,208.65-4.64,288,1.89c69,5.67,129,70.57,133.37,145.5,1.31,22.37.2,44.87.2,67.32Z" transform="translate(-1.54)"/>
    <path class="cls-1" d="M447.93,162.94c2.79-68.28,34.65-118.9,96.88-147.1,60.36-27.34,118.32-19,170.26,23,23,18.61,27.64,42,13.48,60.57-14.93,19.59-39.16,20.4-63.48,1.58-29.14-22.55-60.59-26.35-93.27-10-30.58,15.29-46.34,47.49-42.3,83.36,3.94,35,24.11,57.64,56.71,68.68,27.94,9.47,53.85,3.4,77.48-14.06,25.77-19,47.9-18.35,63.15,1.44s10.62,42.9-14.79,62c-53,39.87-111.17,47.74-171,18.69C480.5,281.68,450.6,230.66,447.93,162.94Z" transform="translate(-1.54)"/>
    <path class="cls-1" d="M85.51,164.67c0,37.39.28,74.78-.07,112.17-.29,31.41-17.26,51.44-42.29,51-24.43-.45-41.09-19.45-41.27-49.49Q1.22,163.7,1.9,49C2.1,18,17.84,1.23,44.13,1.39,69.85,1.54,85.05,18.93,85.41,50,85.84,88.23,85.51,126.45,85.51,164.67Z" transform="translate(-1.54)"/>
    <path class="cls-1" d="M913.34,247.42C866,247.29,829.75,211,829.91,164c.16-46.55,37.46-83.38,84.2-83.13s84.1,37.76,83.89,83.9C997.8,211.1,960.46,247.55,913.34,247.42Z" transform="translate(-1.54)"/>
</svg>